<svg width="210" height="58" viewBox="0 0 210 58" fill="none" xmlns="http://www.w3.org/2000/svg">
<path d="M62.75 14.6562H63.5938V13.8125V10.4375C63.5938 5.31161 59.4384 1.15625 54.3125 1.15625H10.4375C5.31161 1.15625 1.15625 5.31161 1.15625 10.4375V13.8125V14.6562H2H62.75Z" fill="white"/>
<path d="M62.75 14.6562H63.5938V13.8125V10.4375C63.5938 5.31161 59.4384 1.15625 54.3125 1.15625H10.4375C5.31161 1.15625 1.15625 5.31161 1.15625 10.4375V13.8125V14.6562H2H62.75Z" stroke="black" stroke-width="1.6875"/>
<path d="M62.75 14.6562H63.5938V13.8125V10.4375C63.5938 5.31161 59.4384 1.15625 54.3125 1.15625H10.4375C5.31161 1.15625 1.15625 5.31161 1.15625 10.4375V13.8125V14.6562H2H62.75Z" stroke="#81B1EA" stroke-width="1.6875"/>
<path d="M62.75 14.6562H63.5938V13.8125V10.4375C63.5938 5.31161 59.4384 1.15625 54.3125 1.15625H10.4375C5.31161 1.15625 1.15625 5.31161 1.15625 10.4375V13.8125V14.6562H2H62.75Z" stroke="url(#paint0_linear)" stroke-width="1.6875"/>
<path d="M1.15649 34.0625L1.15649 34.9062L2.00024 34.9062L56.844 34.9062C60.5719 34.9062 63.594 31.8842 63.594 28.1563C63.594 24.4283 60.5719 21.4062 56.844 21.4062L2.00025 21.4062L1.1565 21.4062L1.1565 22.25L1.15649 34.0625Z" fill="white"/>
<path d="M1.15649 34.0625L1.15649 34.9062L2.00024 34.9062L56.844 34.9062C60.5719 34.9062 63.594 31.8842 63.594 28.1563C63.594 24.4283 60.5719 21.4062 56.844 21.4062L2.00025 21.4062L1.1565 21.4062L1.1565 22.25L1.15649 34.0625Z" stroke="black" stroke-width="1.6875"/>
<path d="M1.15649 34.0625L1.15649 34.9062L2.00024 34.9062L56.844 34.9062C60.5719 34.9062 63.594 31.8842 63.594 28.1563C63.594 24.4283 60.5719 21.4062 56.844 21.4062L2.00025 21.4062L1.1565 21.4062L1.1565 22.25L1.15649 34.0625Z" stroke="#81B1EA" stroke-width="1.6875"/>
<path d="M1.15649 34.0625L1.15649 34.9062L2.00024 34.9062L56.844 34.9062C60.5719 34.9062 63.594 31.8842 63.594 28.1563C63.594 24.4283 60.5719 21.4062 56.844 21.4062L2.00025 21.4062L1.1565 21.4062L1.1565 22.25L1.15649 34.0625Z" stroke="url(#paint1_linear)" stroke-width="1.6875"/>
<path d="M2 41.6562H1.15625V42.5V45.875C1.15625 51.0009 5.31161 55.1562 10.4375 55.1562H54.3125C59.4384 55.1562 63.5938 51.0009 63.5938 45.875V42.5V41.6562H62.75H2Z" fill="white"/>
<path d="M2 41.6562H1.15625V42.5V45.875C1.15625 51.0009 5.31161 55.1562 10.4375 55.1562H54.3125C59.4384 55.1562 63.5938 51.0009 63.5938 45.875V42.5V41.6562H62.75H2Z" stroke="black" stroke-width="1.6875"/>
<path d="M2 41.6562H1.15625V42.5V45.875C1.15625 51.0009 5.31161 55.1562 10.4375 55.1562H54.3125C59.4384 55.1562 63.5938 51.0009 63.5938 45.875V42.5V41.6562H62.75H2Z" stroke="#81B1EA" stroke-width="1.6875"/>
<path d="M2 41.6562H1.15625V42.5V45.875C1.15625 51.0009 5.31161 55.1562 10.4375 55.1562H54.3125C59.4384 55.1562 63.5938 51.0009 63.5938 45.875V42.5V41.6562H62.75H2Z" stroke="url(#paint2_linear)" stroke-width="1.6875"/>
<rect x="70.3438" y="1.15625" width="13.5" height="54" rx="6.75" fill="white"/>
<rect x="70.3438" y="1.15625" width="13.5" height="54" rx="6.75" stroke="black" stroke-width="1.6875"/>
<rect x="70.3438" y="1.15625" width="13.5" height="54" rx="6.75" stroke="#81B1EA" stroke-width="1.6875"/>
<rect x="70.3438" y="1.15625" width="13.5" height="54" rx="6.75" stroke="url(#paint3_linear)" stroke-width="1.6875"/>
<rect x="195.219" y="1.15625" width="13.5" height="55.6875" rx="6.75" fill="white"/>
<rect x="195.219" y="1.15625" width="13.5" height="55.6875" rx="6.75" stroke="black" stroke-width="1.6875"/>
<rect x="195.219" y="1.15625" width="13.5" height="55.6875" rx="6.75" stroke="#81B1EA" stroke-width="1.6875"/>
<rect x="195.219" y="1.15625" width="13.5" height="55.6875" rx="6.75" stroke="url(#paint4_linear)" stroke-width="1.6875"/>
<path d="M159.781 7.90625V50.0938C159.781 53.8217 162.803 56.8438 166.531 56.8438H181.719C185.447 56.8438 188.469 53.8217 188.469 50.0938C188.469 46.3658 185.447 43.3438 181.719 43.3438H173.281V7.90625C173.281 4.17833 170.259 1.15625 166.531 1.15625C162.803 1.15625 159.781 4.17833 159.781 7.90625Z" fill="white"/>
<path d="M159.781 7.90625V50.0938C159.781 53.8217 162.803 56.8438 166.531 56.8438H181.719C185.447 56.8438 188.469 53.8217 188.469 50.0938C188.469 46.3658 185.447 43.3438 181.719 43.3438H173.281V7.90625C173.281 4.17833 170.259 1.15625 166.531 1.15625C162.803 1.15625 159.781 4.17833 159.781 7.90625Z" stroke="black" stroke-width="1.6875"/>
<path d="M159.781 7.90625V50.0938C159.781 53.8217 162.803 56.8438 166.531 56.8438H181.719C185.447 56.8438 188.469 53.8217 188.469 50.0938C188.469 46.3658 185.447 43.3438 181.719 43.3438H173.281V7.90625C173.281 4.17833 170.259 1.15625 166.531 1.15625C162.803 1.15625 159.781 4.17833 159.781 7.90625Z" stroke="#81B1EA" stroke-width="1.6875"/>
<path d="M159.781 7.90625V50.0938C159.781 53.8217 162.803 56.8438 166.531 56.8438H181.719C185.447 56.8438 188.469 53.8217 188.469 50.0938C188.469 46.3658 185.447 43.3438 181.719 43.3438H173.281V7.90625C173.281 4.17833 170.259 1.15625 166.531 1.15625C162.803 1.15625 159.781 4.17833 159.781 7.90625Z" stroke="url(#paint5_linear)" stroke-width="1.6875"/>
<path d="M151.815 14.6562H152.659V13.8125V10.4375C152.659 5.31161 148.503 1.15625 143.377 1.15625H99.5024C94.3765 1.15625 90.2212 5.31161 90.2212 10.4375V13.8125V14.6562H91.0649H151.815Z" fill="white"/>
<path d="M151.815 14.6562H152.659V13.8125V10.4375C152.659 5.31161 148.503 1.15625 143.377 1.15625H99.5024C94.3765 1.15625 90.2212 5.31161 90.2212 10.4375V13.8125V14.6562H91.0649H151.815Z" stroke="black" stroke-width="1.6875"/>
<path d="M151.815 14.6562H152.659V13.8125V10.4375C152.659 5.31161 148.503 1.15625 143.377 1.15625H99.5024C94.3765 1.15625 90.2212 5.31161 90.2212 10.4375V13.8125V14.6562H91.0649H151.815Z" stroke="#81B1EA" stroke-width="1.6875"/>
<path d="M151.815 14.6562H152.659V13.8125V10.4375C152.659 5.31161 148.503 1.15625 143.377 1.15625H99.5024C94.3765 1.15625 90.2212 5.31161 90.2212 10.4375V13.8125V14.6562H91.0649H151.815Z" stroke="url(#paint6_linear)" stroke-width="1.6875"/>
<path d="M90.2214 34.0625L90.2214 34.9062L91.0652 34.9062L145.909 34.9062C149.637 34.9062 152.659 31.8842 152.659 28.1563C152.659 24.4283 149.637 21.4062 145.909 21.4062L91.0652 21.4062L90.2214 21.4062L90.2214 22.25L90.2214 34.0625Z" fill="white"/>
<path d="M90.2214 34.0625L90.2214 34.9062L91.0652 34.9062L145.909 34.9062C149.637 34.9062 152.659 31.8842 152.659 28.1563C152.659 24.4283 149.637 21.4062 145.909 21.4062L91.0652 21.4062L90.2214 21.4062L90.2214 22.25L90.2214 34.0625Z" stroke="black" stroke-width="1.6875"/>
<path d="M90.2214 34.0625L90.2214 34.9062L91.0652 34.9062L145.909 34.9062C149.637 34.9062 152.659 31.8842 152.659 28.1563C152.659 24.4283 149.637 21.4062 145.909 21.4062L91.0652 21.4062L90.2214 21.4062L90.2214 22.25L90.2214 34.0625Z" stroke="#81B1EA" stroke-width="1.6875"/>
<path d="M90.2214 34.0625L90.2214 34.9062L91.0652 34.9062L145.909 34.9062C149.637 34.9062 152.659 31.8842 152.659 28.1563C152.659 24.4283 149.637 21.4062 145.909 21.4062L91.0652 21.4062L90.2214 21.4062L90.2214 22.25L90.2214 34.0625Z" stroke="url(#paint7_linear)" stroke-width="1.6875"/>
<path d="M91.0649 41.6562H90.2212V42.5V45.875C90.2212 51.0009 94.3765 55.1562 99.5024 55.1562H143.377C148.503 55.1562 152.659 51.0009 152.659 45.875V42.5V41.6562H151.815H91.0649Z" fill="white"/>
<path d="M91.0649 41.6562H90.2212V42.5V45.875C90.2212 51.0009 94.3765 55.1562 99.5024 55.1562H143.377C148.503 55.1562 152.659 51.0009 152.659 45.875V42.5V41.6562H151.815H91.0649Z" stroke="black" stroke-width="1.6875"/>
<path d="M91.0649 41.6562H90.2212V42.5V45.875C90.2212 51.0009 94.3765 55.1562 99.5024 55.1562H143.377C148.503 55.1562 152.659 51.0009 152.659 45.875V42.5V41.6562H151.815H91.0649Z" stroke="#81B1EA" stroke-width="1.6875"/>
<path d="M91.0649 41.6562H90.2212V42.5V45.875C90.2212 51.0009 94.3765 55.1562 99.5024 55.1562H143.377C148.503 55.1562 152.659 51.0009 152.659 45.875V42.5V41.6562H151.815H91.0649Z" stroke="url(#paint8_linear)" stroke-width="1.6875"/>
<defs>
<linearGradient id="paint0_linear" x1="62.7501" y1="7.88287" x2="2" y2="7.88288" gradientUnits="userSpaceOnUse">
<stop stop-color="white"/>
<stop offset="1" stop-color="white" stop-opacity="0"/>
</linearGradient>
<linearGradient id="paint1_linear" x1="2.00011" y1="28.1796" x2="62.7502" y2="28.1796" gradientUnits="userSpaceOnUse">
<stop stop-color="white"/>
<stop offset="1" stop-color="white" stop-opacity="0"/>
</linearGradient>
<linearGradient id="paint2_linear" x1="62.7501" y1="48.3829" x2="2" y2="48.3829" gradientUnits="userSpaceOnUse">
<stop stop-color="white"/>
<stop offset="1" stop-color="white" stop-opacity="0"/>
</linearGradient>
<linearGradient id="paint3_linear" x1="83" y1="28.0527" x2="71.1875" y2="28.0527" gradientUnits="userSpaceOnUse">
<stop stop-color="white"/>
<stop offset="1" stop-color="white" stop-opacity="0"/>
</linearGradient>
<linearGradient id="paint4_linear" x1="207.875" y1="28.8931" x2="196.063" y2="28.8931" gradientUnits="userSpaceOnUse">
<stop stop-color="white"/>
<stop offset="1" stop-color="white" stop-opacity="0"/>
</linearGradient>
<linearGradient id="paint5_linear" x1="187.625" y1="28.8931" x2="160.625" y2="28.8931" gradientUnits="userSpaceOnUse">
<stop stop-color="white"/>
<stop offset="1" stop-color="white" stop-opacity="0"/>
</linearGradient>
<linearGradient id="paint6_linear" x1="151.815" y1="7.88287" x2="91.0649" y2="7.88288" gradientUnits="userSpaceOnUse">
<stop stop-color="white"/>
<stop offset="1" stop-color="white" stop-opacity="0"/>
</linearGradient>
<linearGradient id="paint7_linear" x1="91.065" y1="28.1796" x2="151.815" y2="28.1796" gradientUnits="userSpaceOnUse">
<stop stop-color="white"/>
<stop offset="1" stop-color="white" stop-opacity="0"/>
</linearGradient>
<linearGradient id="paint8_linear" x1="151.815" y1="48.3829" x2="91.0649" y2="48.3829" gradientUnits="userSpaceOnUse">
<stop stop-color="white"/>
<stop offset="1" stop-color="white" stop-opacity="0"/>
</linearGradient>
</defs>
</svg>
